<?xml version="1.0" encoding="UTF-8"?>
<!DOCTYPE svg PUBLIC "-//W3C//DTD SVG 1.1//EN" "http://www.w3.org/Graphics/SVG/1.1/DTD/svg11.dtd">
<svg xmlns="http://www.w3.org/2000/svg" xmlns:xlink="http://www.w3.org/1999/xlink" xmlns:ev="http://www.w3.org/2001/xml-events" version="1.1" baseProfile="full" viewBox="0 0 1350 500">
  <style type="text/css">
    <![CDATA[.stroked {
  stroke-width: 1;
  stroke: #222;
}

.darkFill {
  fill: #555;
}

.lightFill {
  fill: #eee;
}

.whiteFill {
  fill: #fff;
}

.buttonLabel {
  text-anchor: middle;
  text-transform: capitalize;
  font-family: Helvetica, Arial, sans-serif;
  font-size: 24px;
  fill: #999;
}

svg {
  /* border: 1px dotted white; */
}
]]>
  </style>
  <title>Steno Bricks Diagram</title>
  <symbol id="topRowPath">
    <path d="M 0.0 100 C 0.0 80.0 50.0 80.0 50.0 100 L 100.0 100 L 100.0 150 C 100.0 210.0 0.0 210.0 0.0 150 z"/>
  </symbol>
  <symbol id="bottomRowPath">
    <path d="M 0.0 100 L 50.0 100 C 50.0 80.0 100.0 80.0 100.0 100 L 100.0 220 C 100.0 280.0 0.0 280.0 0.0 220 z"/>
  </symbol>
  <symbol id="thumbFirstPath">
    <path d="M 0.0 100 L 50.0 100 C 50.0 80.0 100.0 80.0 100.0 100 L 100.0 300 C 100.0 360.0 0.0 360.0 0.0 300 z"/>
  </symbol>
  <symbol id="thumbSecondPath">
    <path d="M 0.0 100 C 0.0 80.0 50.0 80.0 50.0 100 L 100.0 100 L 100.0 300 C 100.0 360.0 0.0 360.0 0.0 300 z"/>
  </symbol>
  <symbol id="starKeyPath">
    <path d="M 0.0 100 L 50.0 100 C 50.0 80.0 150.0 80.0 150.0 100 L 200.0 100 L 200.0 220 C 200.0 280.0 0.0 280.0 0.0 220 z"/>
  </symbol>
  <symbol id="numberKeyPath">
    <path d="M 0.0 100 C 0.0 80.0 100.0 80.0 100.0 100 L 100.0 150 C 100.0 210.0 0.0 210.0 0.0 150 z"/>
  </symbol>
  <symbol id="matcher-width-1">
    <path d="M 5.0 100 L 45.0 100 C 45.0 115.0 5.0 115.0 5.0 100 z"/>
  </symbol>
  <symbol id="matcher-width-2">
    <path d="M 5.0 100 L 95.0 100 C 95.0 115.0 5.0 115.0 5.0 100 z"/>
  </symbol>
  <symbol id="span-width-1">
    <path d="M 5.0 100 L 45.0 100 C 50.0 110 50.0 140 45.0 150 L 5.0 150 C  0 140 0 110 5.0 100 z"/>
  </symbol>
  <symbol id="span-width-2">
    <path d="M 5.0 100 L 95.0 100 C 100.0 110 100.0 140 95.0 150 L 5.0 150 C  0 140 0 110 5.0 100 z"/>
  </symbol>
  <symbol id="span-width-3">
    <path d="M 5.0 100 L 145.0 100 C 150.0 110 150.0 140 145.0 150 L 5.0 150 C  0 140 0 110 5.0 100 z"/>
  </symbol>
  <symbol id="span-width-4">
    <path d="M 5.0 100 L 195.0 100 C 200.0 110 200.0 140 195.0 150 L 5.0 150 C  0 140 0 110 5.0 100 z"/>
  </symbol>
  <symbol id="span-width-5">
    <path d="M 5.0 100 L 245.0 100 C 250.0 110 250.0 140 245.0 150 L 5.0 150 C  0 140 0 110 5.0 100 z"/>
  </symbol>
  <symbol id="span-width-6">
    <path d="M 5.0 100 L 295.0 100 C 300.0 110 300.0 140 295.0 150 L 5.0 150 C  0 140 0 110 5.0 100 z"/>
  </symbol>
  <symbol id="span-width-7">
    <path d="M 5.0 100 L 345.0 100 C 350.0 110 350.0 140 345.0 150 L 5.0 150 C  0 140 0 110 5.0 100 z"/>
  </symbol>
  <symbol id="span-width-8">
    <path d="M 5.0 100 L 395.0 100 C 400.0 110 400.0 140 395.0 150 L 5.0 150 C  0 140 0 110 5.0 100 z"/>
  </symbol>
  <symbol id="span-width-9">
    <path d="M 5.0 100 L 445.0 100 C 450.0 110 450.0 140 445.0 150 L 5.0 150 C  0 140 0 110 5.0 100 z"/>
  </symbol>
  <symbol id="span-width-10">
    <path d="M 5.0 100 L 495.0 100 C 500.0 110 500.0 140 495.0 150 L 5.0 150 C  0 140 0 110 5.0 100 z"/>
  </symbol>
  <symbol id="span-width-11">
    <path d="M 5.0 100 L 545.0 100 C 550.0 110 550.0 140 545.0 150 L 5.0 150 C  0 140 0 110 5.0 100 z"/>
  </symbol>
  <symbol id="span-width-12">
    <path d="M 5.0 100 L 595.0 100 C 600.0 110 600.0 140 595.0 150 L 5.0 150 C  0 140 0 110 5.0 100 z"/>
  </symbol>
  <symbol id="span-width-13">
    <path d="M 5.0 100 L 645.0 100 C 650.0 110 650.0 140 645.0 150 L 5.0 150 C  0 140 0 110 5.0 100 z"/>
  </symbol>
  <symbol id="span-width-14">
    <path d="M 5.0 100 L 695.0 100 C 700.0 110 700.0 140 695.0 150 L 5.0 150 C  0 140 0 110 5.0 100 z"/>
  </symbol>
  <symbol id="span-width-15">
    <path d="M 5.0 100 L 745.0 100 C 750.0 110 750.0 140 745.0 150 L 5.0 150 C  0 140 0 110 5.0 100 z"/>
  </symbol>
  <g transform="translate(100)">
    <use xlink:href="#thumbFirstPath" x="350.0" y="50" class="stroked lightFill"/>
    <use xlink:href="#thumbSecondPath" x="450.0" y="50" class="stroked darkFill"/>
    <use xlink:href="#thumbFirstPath" x="550.0" y="50" class="stroked darkFill"/>
    <use xlink:href="#thumbSecondPath" x="650.0" y="50" class="stroked lightFill"/>
    <use xlink:href="#bottomRowPath" x="0" y="50" class="stroked darkFill"/>
    <use xlink:href="#bottomRowPath" x="100" y="50" class="stroked darkFill"/>
    <use xlink:href="#bottomRowPath" x="200" y="50" class="stroked darkFill"/>
    <use xlink:href="#bottomRowPath" x="300" y="50" class="stroked darkFill"/>
    <use xlink:href="#starKeyPath" x="450.0" y="50" class="stroked lightFill"/>
    <use xlink:href="#bottomRowPath" x="700" y="50" class="stroked lightFill"/>
    <use xlink:href="#bottomRowPath" x="800" y="50" class="stroked lightFill"/>
    <use xlink:href="#bottomRowPath" x="900" y="50" class="stroked lightFill"/>
    <use xlink:href="#bottomRowPath" x="1000" y="50" class="stroked lightFill"/>
    <use xlink:href="#bottomRowPath" x="1100" y="50" class="stroked lightFill"/>
    <use xlink:href="#numberKeyPath" x="-50.0" y="50" class="stroked lightFill"/>
    <use xlink:href="#topRowPath" x="100" y="50" class="stroked lightFill"/>
    <use xlink:href="#topRowPath" x="200" y="50" class="stroked lightFill"/>
    <use xlink:href="#topRowPath" x="300" y="50" class="stroked lightFill"/>
    <use xlink:href="#topRowPath" x="700" y="50" class="stroked darkFill"/>
    <use xlink:href="#topRowPath" x="800" y="50" class="stroked darkFill"/>
    <use xlink:href="#topRowPath" x="900" y="50" class="stroked darkFill"/>
    <use xlink:href="#topRowPath" x="1000" y="50" class="stroked darkFill"/>
    <use xlink:href="#topRowPath" x="1100" y="50" class="stroked darkFill"/>
    <text class="buttonLabel" y="115" x="0">
      <tspan>#</tspan>
    </text>
    <text class="buttonLabel" y="115" x="75">
      <tspan>s</tspan>
    </text>
    <text class="buttonLabel" y="115" x="125">
      <tspan>t</tspan>
    </text>
    <text class="buttonLabel" y="115" x="175">
      <tspan>k</tspan>
    </text>
    <text class="buttonLabel" y="115" x="225">
      <tspan>p</tspan>
    </text>
    <text class="buttonLabel" y="115" x="275">
      <tspan>w</tspan>
    </text>
    <text class="buttonLabel" y="115" x="325">
      <tspan>h</tspan>
    </text>
    <text class="buttonLabel" y="115" x="375">
      <tspan>r</tspan>
    </text>
    <text class="buttonLabel" y="115" x="425">
      <tspan>a</tspan>
    </text>
    <text class="buttonLabel" y="115" x="475">
      <tspan>o</tspan>
    </text>
    <text class="buttonLabel" y="115" x="550">
      <tspan>*</tspan>
    </text>
    <text class="buttonLabel" y="115" x="625">
      <tspan>e</tspan>
    </text>
    <text class="buttonLabel" y="115" x="675">
      <tspan>u</tspan>
    </text>
    <text class="buttonLabel" y="115" x="725">
      <tspan>f</tspan>
    </text>
    <text class="buttonLabel" y="115" x="775">
      <tspan>r</tspan>
    </text>
    <text class="buttonLabel" y="115" x="825">
      <tspan>p</tspan>
    </text>
    <text class="buttonLabel" y="115" x="875">
      <tspan>b</tspan>
    </text>
    <text class="buttonLabel" y="115" x="925">
      <tspan>l</tspan>
    </text>
    <text class="buttonLabel" y="115" x="975">
      <tspan>g</tspan>
    </text>
    <text class="buttonLabel" y="115" x="1025">
      <tspan>t</tspan>
    </text>
    <text class="buttonLabel" y="115" x="1075">
      <tspan>s</tspan>
    </text>
    <text class="buttonLabel" y="115" x="1125">
      <tspan>d</tspan>
    </text>
    <text class="buttonLabel" y="115" x="1175">
      <tspan>z</tspan>
    </text>
<g>
  <use xlink:href="#matcher-width-1" x="800" y="-40" class="stroked darkFill"/>
  <use xlink:href="#span-width-1" x="800" y="-90" class="stroked whiteFill"/>
  <text class="buttonLabel" x="825.0" y="42">
    <tspan>P</tspan>
  </text>
</g>
<g>
  <use xlink:href="#matcher-width-1" x="400" y="-40" class="stroked lightFill"/>
  <use xlink:href="#span-width-1" x="400" y="-90" class="stroked whiteFill"/>
  <text class="buttonLabel" x="425.0" y="42">
    <tspan>A</tspan>
  </text>
</g>
<g>
  <use xlink:href="#matcher-width-1" x="50" y="-40" class="stroked darkFill"/>
  <use xlink:href="#span-width-1" x="50" y="-90" class="stroked whiteFill"/>
  <text class="buttonLabel" x="75.0" y="42">
    <tspan>S</tspan>
  </text>
</g>
  </g>
</svg>
