<?xml version="1.0" encoding="UTF-8"?>
<!DOCTYPE svg PUBLIC "-//W3C//DTD SVG 1.1//EN" "http://www.w3.org/Graphics/SVG/1.1/DTD/svg11.dtd">
<svg xmlns="http://www.w3.org/2000/svg" xmlns:xlink="http://www.w3.org/1999/xlink" xmlns:ev="http://www.w3.org/2001/xml-events" version="1.1" baseProfile="full" viewBox="0 0 1400 500">
  <style type="text/css">
    <![CDATA[.rule-line {
  stroke-width: 0;
  stroke: #66CCFF;
}

.finger-column {
  fill: #66CCFF;
  opacity: 0.1;
}

.stroked {
  stroke-width: 1;
  stroke: #222;
}

.darkFill {
  fill: #555;
}

.lightFill {
  fill: #eee;
}

.whiteFill {
  fill: #fff;
}

.buttonLabel {
  text-anchor: middle;
  text-transform: capitalize;
  font-family: Helvetica, Arial, sans-serif;
  font-size: 24px;
  fill: #999;
}

svg {
  /* border: 1px dotted white; */
}
]]>
  </style>
  <title>Steno Bricks Diagram</title>
  <symbol id="finger-column">
    <rect x="0" y="0" width="100" height="500"/>
  </symbol>
  <use xlink:href="#finger-column" transform="translate(150)" class="finger-column"/>
  <use xlink:href="#finger-column" transform="translate(350)" class="finger-column"/>
  <use xlink:href="#finger-column" transform="translate(550)" class="finger-column"/>
  <use xlink:href="#finger-column" transform="translate(750)" class="finger-column"/>
  <use xlink:href="#finger-column" transform="translate(950)" class="finger-column"/>
  <use xlink:href="#finger-column" transform="translate(1150)" class="finger-column"/>
  <symbol id="vertical-rule">
    <path d="M0 0 V 10000"/>
  </symbol>
  <use xlink:href="#vertical-rule" transform="translate(50)" class="rule-line"/>
  <use xlink:href="#vertical-rule" transform="translate(100)" class="rule-line"/>
  <use xlink:href="#vertical-rule" transform="translate(150)" class="rule-line"/>
  <use xlink:href="#vertical-rule" transform="translate(200)" class="rule-line"/>
  <use xlink:href="#vertical-rule" transform="translate(250)" class="rule-line"/>
  <use xlink:href="#vertical-rule" transform="translate(300)" class="rule-line"/>
  <use xlink:href="#vertical-rule" transform="translate(350)" class="rule-line"/>
  <use xlink:href="#vertical-rule" transform="translate(400)" class="rule-line"/>
  <use xlink:href="#vertical-rule" transform="translate(450)" class="rule-line"/>
  <use xlink:href="#vertical-rule" transform="translate(500)" class="rule-line"/>
  <use xlink:href="#vertical-rule" transform="translate(550)" class="rule-line"/>
  <use xlink:href="#vertical-rule" transform="translate(600)" class="rule-line"/>
  <use xlink:href="#vertical-rule" transform="translate(650)" class="rule-line"/>
  <use xlink:href="#vertical-rule" transform="translate(700)" class="rule-line"/>
  <use xlink:href="#vertical-rule" transform="translate(750)" class="rule-line"/>
  <use xlink:href="#vertical-rule" transform="translate(800)" class="rule-line"/>
  <use xlink:href="#vertical-rule" transform="translate(850)" class="rule-line"/>
  <use xlink:href="#vertical-rule" transform="translate(900)" class="rule-line"/>
  <use xlink:href="#vertical-rule" transform="translate(950)" class="rule-line"/>
  <use xlink:href="#vertical-rule" transform="translate(1000)" class="rule-line"/>
  <use xlink:href="#vertical-rule" transform="translate(1050)" class="rule-line"/>
  <use xlink:href="#vertical-rule" transform="translate(1100)" class="rule-line"/>
  <use xlink:href="#vertical-rule" transform="translate(1150)" class="rule-line"/>
  <use xlink:href="#vertical-rule" transform="translate(1200)" class="rule-line"/>
  <use xlink:href="#vertical-rule" transform="translate(1250)" class="rule-line"/>
  <use xlink:href="#vertical-rule" transform="translate(1300)" class="rule-line"/>
  <use xlink:href="#vertical-rule" transform="translate(1350)" class="rule-line"/>
  <symbol id="horizontal-rule">
    <path d="M0 0 H 10000"/>
  </symbol>
  <use xlink:href="#horizontal-rule" transform="translate(0 0)" class="rule-line"/>
  <use xlink:href="#horizontal-rule" transform="translate(0 50)" class="rule-line"/>
  <use xlink:href="#horizontal-rule" transform="translate(0 100)" class="rule-line"/>
  <use xlink:href="#horizontal-rule" transform="translate(0 150)" class="rule-line"/>
  <use xlink:href="#horizontal-rule" transform="translate(0 200)" class="rule-line"/>
  <use xlink:href="#horizontal-rule" transform="translate(0 250)" class="rule-line"/>
  <use xlink:href="#horizontal-rule" transform="translate(0 300)" class="rule-line"/>
  <use xlink:href="#horizontal-rule" transform="translate(0 350)" class="rule-line"/>
  <use xlink:href="#horizontal-rule" transform="translate(0 400)" class="rule-line"/>
  <use xlink:href="#horizontal-rule" transform="translate(0 450)" class="rule-line"/>
  <use xlink:href="#horizontal-rule" transform="translate(0 500)" class="rule-line"/>
  <symbol id="topRowPath">
    <path d="M 0.0 100 C 0.0 80.0 50.0 80.0 50.0 100 L 100.0 100 L 100.0 150 C 100.0 210.0 0.0 210.0 0.0 150 z"/>
  </symbol>
  <symbol id="bottomRowPath">
    <path d="M 0.0 100 L 50.0 100 C 50.0 80.0 100.0 80.0 100.0 100 L 100.0 220 C 100.0 280.0 0.0 280.0 0.0 220 z"/>
  </symbol>
  <symbol id="doubleRowPath">
    <path d="M 0.0 100 C 0.0 80.0 100.0 80.0 100.0 100 L 100.0 220 C 100.0 280.0 0.0 280.0 0.0 220 z"/>
  </symbol>
  <symbol id="thumbFirstPath">
    <path d="M 0.0 100 L 50.0 100 C 50.0 80.0 100.0 80.0 100.0 100 L 100.0 300 C 100.0 360.0 0.0 360.0 0.0 300 z"/>
  </symbol>
  <symbol id="thumbSecondPath">
    <path d="M 0.0 100 C 0.0 80.0 50.0 80.0 50.0 100 L 100.0 100 L 100.0 300 C 100.0 360.0 0.0 360.0 0.0 300 z"/>
  </symbol>
  <symbol id="starKeyPath">
    <path d="M 0.0 100 L 50.0 100 C 50.0 80.0 150.0 80.0 150.0 100 L 200.0 100 L 200.0 220 C 200.0 280.0 0.0 280.0 0.0 220 z"/>
  </symbol>
  <symbol id="numberKeyPath">
    <path d="M 0.0 100 C 0.0 80.0 100.0 80.0 100.0 100 L 100.0 150 C 100.0 210.0 0.0 210.0 0.0 150 z"/>
  </symbol>
  <symbol id="matcher-width-1">
    <path d="M 5.0 100 L 45.0 100 C 45.0 115.0 5.0 115.0 5.0 100 z"/>
  </symbol>
  <symbol id="matcher-width-2">
    <path d="M 5.0 100 L 95.0 100 C 95.0 115.0 5.0 115.0 5.0 100 z"/>
  </symbol>
  <symbol id="span-width-1">
    <path d="M 5.0 100 L 45.0 100 C 50.0 110 50.0 140 45.0 150 L 5.0 150 C  0 140 0 110 5.0 100 z"/>
  </symbol>
  <symbol id="span-width-2">
    <path d="M 5.0 100 L 95.0 100 C 100.0 110 100.0 140 95.0 150 L 5.0 150 C  0 140 0 110 5.0 100 z"/>
  </symbol>
  <symbol id="span-width-3">
    <path d="M 5.0 100 L 145.0 100 C 150.0 110 150.0 140 145.0 150 L 5.0 150 C  0 140 0 110 5.0 100 z"/>
  </symbol>
  <symbol id="span-width-4">
    <path d="M 5.0 100 L 195.0 100 C 200.0 110 200.0 140 195.0 150 L 5.0 150 C  0 140 0 110 5.0 100 z"/>
  </symbol>
  <symbol id="span-width-5">
    <path d="M 5.0 100 L 245.0 100 C 250.0 110 250.0 140 245.0 150 L 5.0 150 C  0 140 0 110 5.0 100 z"/>
  </symbol>
  <symbol id="span-width-6">
    <path d="M 5.0 100 L 295.0 100 C 300.0 110 300.0 140 295.0 150 L 5.0 150 C  0 140 0 110 5.0 100 z"/>
  </symbol>
  <symbol id="span-width-7">
    <path d="M 5.0 100 L 345.0 100 C 350.0 110 350.0 140 345.0 150 L 5.0 150 C  0 140 0 110 5.0 100 z"/>
  </symbol>
  <symbol id="span-width-8">
    <path d="M 5.0 100 L 395.0 100 C 400.0 110 400.0 140 395.0 150 L 5.0 150 C  0 140 0 110 5.0 100 z"/>
  </symbol>
  <symbol id="span-width-9">
    <path d="M 5.0 100 L 445.0 100 C 450.0 110 450.0 140 445.0 150 L 5.0 150 C  0 140 0 110 5.0 100 z"/>
  </symbol>
  <symbol id="span-width-10">
    <path d="M 5.0 100 L 495.0 100 C 500.0 110 500.0 140 495.0 150 L 5.0 150 C  0 140 0 110 5.0 100 z"/>
  </symbol>
  <symbol id="span-width-11">
    <path d="M 5.0 100 L 545.0 100 C 550.0 110 550.0 140 545.0 150 L 5.0 150 C  0 140 0 110 5.0 100 z"/>
  </symbol>
  <symbol id="span-width-12">
    <path d="M 5.0 100 L 595.0 100 C 600.0 110 600.0 140 595.0 150 L 5.0 150 C  0 140 0 110 5.0 100 z"/>
  </symbol>
  <symbol id="span-width-13">
    <path d="M 5.0 100 L 645.0 100 C 650.0 110 650.0 140 645.0 150 L 5.0 150 C  0 140 0 110 5.0 100 z"/>
  </symbol>
  <symbol id="span-width-14">
    <path d="M 5.0 100 L 695.0 100 C 700.0 110 700.0 140 695.0 150 L 5.0 150 C  0 140 0 110 5.0 100 z"/>
  </symbol>
  <symbol id="span-width-15">
    <path d="M 5.0 100 L 745.0 100 C 750.0 110 750.0 140 745.0 150 L 5.0 150 C  0 140 0 110 5.0 100 z"/>
  </symbol>
  <g transform="translate(100 0)">
    <use xlink:href="#thumbFirstPath" x="400" y="100" class="stroked darkFill"/>
    <use xlink:href="#thumbSecondPath" x="500" y="100" class="stroked lightFill"/>
    <use xlink:href="#thumbFirstPath" x="600" y="100" class="stroked darkFill"/>
    <use xlink:href="#thumbSecondPath" x="700" y="100" class="stroked lightFill"/>
    <use xlink:href="#doubleRowPath" x="50.0" y="100" class="stroked lightFill"/>
    <use xlink:href="#bottomRowPath" x="150.0" y="100" class="stroked lightFill"/>
    <use xlink:href="#bottomRowPath" x="250.0" y="100" class="stroked lightFill"/>
    <use xlink:href="#bottomRowPath" x="350.0" y="100" class="stroked lightFill"/>
    <use xlink:href="#starKeyPath" x="500" y="100" class="stroked lightFill"/>
    <use xlink:href="#bottomRowPath" x="750.0" y="100" class="stroked lightFill"/>
    <use xlink:href="#bottomRowPath" x="850.0" y="100" class="stroked lightFill"/>
    <use xlink:href="#bottomRowPath" x="950.0" y="100" class="stroked lightFill"/>
    <use xlink:href="#bottomRowPath" x="1050.0" y="100" class="stroked lightFill"/>
    <use xlink:href="#bottomRowPath" x="1150.0" y="100" class="stroked lightFill"/>
    <use xlink:href="#numberKeyPath" x="-50.0" y="100" class="stroked darkFill"/>
    <use xlink:href="#topRowPath" x="150.0" y="100" class="stroked darkFill"/>
    <use xlink:href="#topRowPath" x="250.0" y="100" class="stroked darkFill"/>
    <use xlink:href="#topRowPath" x="350.0" y="100" class="stroked darkFill"/>
    <use xlink:href="#topRowPath" x="750.0" y="100" class="stroked darkFill"/>
    <use xlink:href="#topRowPath" x="850.0" y="100" class="stroked darkFill"/>
    <use xlink:href="#topRowPath" x="950.0" y="100" class="stroked darkFill"/>
    <use xlink:href="#topRowPath" x="1050.0" y="100" class="stroked darkFill"/>
    <use xlink:href="#topRowPath" x="1150.0" y="100" class="stroked darkFill"/>
    <text class="buttonLabel" y="160" x="0">
      <tspan>#</tspan>
    </text>
    <text class="buttonLabel" y="160" x="100">
      <tspan>s</tspan>
    </text>
    <text class="buttonLabel" y="160" x="175">
      <tspan>t</tspan>
    </text>
    <text class="buttonLabel" y="160" x="225">
      <tspan>k</tspan>
    </text>
    <text class="buttonLabel" y="160" x="275">
      <tspan>p</tspan>
    </text>
    <text class="buttonLabel" y="160" x="325">
      <tspan>w</tspan>
    </text>
    <text class="buttonLabel" y="160" x="375">
      <tspan>h</tspan>
    </text>
    <text class="buttonLabel" y="160" x="425">
      <tspan>r</tspan>
    </text>
    <text class="buttonLabel" y="160" x="475">
      <tspan>a</tspan>
    </text>
    <text class="buttonLabel" y="160" x="525">
      <tspan>o</tspan>
    </text>
    <text class="buttonLabel" y="160" x="600">
      <tspan>*</tspan>
    </text>
    <text class="buttonLabel" y="160" x="675">
      <tspan>e</tspan>
    </text>
    <text class="buttonLabel" y="160" x="725">
      <tspan>u</tspan>
    </text>
    <text class="buttonLabel" y="160" x="775">
      <tspan>f</tspan>
    </text>
    <text class="buttonLabel" y="160" x="825">
      <tspan>r</tspan>
    </text>
    <text class="buttonLabel" y="160" x="875">
      <tspan>p</tspan>
    </text>
    <text class="buttonLabel" y="160" x="925">
      <tspan>b</tspan>
    </text>
    <text class="buttonLabel" y="160" x="975">
      <tspan>l</tspan>
    </text>
    <text class="buttonLabel" y="160" x="1025">
      <tspan>g</tspan>
    </text>
    <text class="buttonLabel" y="160" x="1075">
      <tspan>t</tspan>
    </text>
    <text class="buttonLabel" y="160" x="1125">
      <tspan>s</tspan>
    </text>
    <text class="buttonLabel" y="160" x="1175">
      <tspan>d</tspan>
    </text>
    <text class="buttonLabel" y="160" x="1225">
      <tspan>z</tspan>
    </text>
<g class="definition-stroke" transform="translate(0 0)">
<g class="stroke-brick">
  <use xlink:href="#matcher-width-1" x="850" y="0" class="stroked darkFill"/>
  <use xlink:href="#matcher-width-1" x="900" y="0" class="stroked lightFill"/>
  <use xlink:href="#matcher-width-1" x="1000" y="0" class="stroked lightFill"/>
  <use xlink:href="#span-width-4" x="850" y="-50" class="stroked whiteFill"/>
  <text class="buttonLabel" x="950.0" y="85">
    <tspan>NG</tspan>
  </text>
</g>
<g class="stroke-brick">
  <use xlink:href="#matcher-width-1" x="700" y="0" class="stroked lightFill"/>
  <use xlink:href="#span-width-1" x="700" y="-50" class="stroked whiteFill"/>
  <text class="buttonLabel" x="725.0" y="85">
    <tspan>U</tspan>
  </text>
</g>
<g class="stroke-brick">
  <use xlink:href="#matcher-width-1" x="350" y="0" class="stroked darkFill"/>
  <use xlink:href="#matcher-width-1" x="400" y="0" class="stroked lightFill"/>
  <use xlink:href="#span-width-2" x="350" y="-50" class="stroked whiteFill"/>
  <text class="buttonLabel" x="400.0" y="85">
    <tspan>L</tspan>
  </text>
</g>
<g class="stroke-brick">
  <use xlink:href="#matcher-width-1" x="150" y="0" class="stroked darkFill"/>
  <use xlink:href="#matcher-width-1" x="250" y="0" class="stroked darkFill"/>
  <use xlink:href="#span-width-3" x="150" y="-50" class="stroked whiteFill"/>
  <text class="buttonLabel" x="225.0" y="85">
    <tspan>F</tspan>
  </text>
</g>
</g>
  </g>
</svg>
